<?xml version="1.0" standalone="no"?>
<!DOCTYPE svg PUBLIC "-//W3C//DTD SVG 20010904//EN"
 "http://www.w3.org/TR/2001/REC-SVG-20010904/DTD/svg10.dtd">
<svg version="1.0" xmlns="http://www.w3.org/2000/svg"
 width="512.000000pt" height="512.000000pt" viewBox="0 0 512.000000 512.000000"
 preserveAspectRatio="xMidYMid meet">
<metadata>
Created by potrace 1.14, written by Peter Selinger 2001-2017
</metadata>
<g transform="translate(0.000000,512.000000) scale(0.100000,-0.100000)"
fill="#000000" stroke="none">
<path d="M2 2563 l-2 -2563 2560 0 c1700 0 2560 3 2560 10 0 7 -858 10 -2555
10 l-2555 0 -3 2553 -2 2552 -3 -2562z"/>
<path d="M3540 4320 c-234 -37 -702 -112 -1040 -165 -338 -53 -739 -116 -890
-140 -151 -24 -552 -87 -890 -140 -338 -52 -625 -98 -637 -101 l-23 -4 0
-1515 0 -1515 2500 0 2500 0 -2 1517 -3 1517 -539 308 c-296 169 -541 308
-545 307 -3 -1 -197 -32 -431 -69z m652 -275 c178 -37 196 -103 42 -146 -193
-55 -549 -19 -578 57 -14 35 56 76 159 93 83 14 304 12 377 -4z m43 -300 c177
-27 285 -76 285 -130 0 -134 -599 -196 -922 -95 -69 21 -128 65 -128 95 0 51
116 104 284 130 114 18 361 18 481 0z m-2289 -356 c29 -8 54 -23 74 -46 43
-48 40 -89 -28 -398 l-57 -260 -189 -3 c-104 -1 -193 1 -197 5 -4 5 19 132 52
283 32 151 59 281 59 288 0 8 -20 12 -67 12 l-68 0 -59 -283 c-33 -155 -61
-288 -64 -294 -3 -10 -52 -13 -198 -13 -149 0 -194 3 -194 13 0 6 27 138 60
291 33 154 60 281 60 283 0 2 -31 3 -69 3 l-70 0 -17 -77 c-9 -43 -38 -175
-63 -293 l-46 -215 -189 -3 c-104 -1 -193 1 -197 5 -4 5 12 98 36 208 24 110
58 269 75 353 l33 152 639 0 c438 0 653 -4 684 -11z m1394 4 c0 -5 -13 -68
-29 -140 l-29 -133 23 0 c15 0 39 20 76 65 l54 65 169 0 c160 0 168 -1 154
-17 -8 -10 -42 -51 -76 -91 -34 -40 -62 -79 -62 -85 1 -7 18 -91 39 -187 21
-96 36 -178 34 -182 -4 -7 -333 -12 -333 -5 0 3 -56 263 -65 305 -6 26 -32 29
-39 5 -6 -21 -66 -302 -66 -308 0 -8 -329 -5 -333 3 -3 4 14 97 38 207 24 110
58 269 75 353 l33 152 168 0 c93 0 169 -3 169 -7z m-477 -243 c15 -12 29 -35
32 -53 7 -39 -47 -295 -71 -336 -10 -16 -36 -40 -58 -53 -40 -22 -48 -23 -331
-26 -328 -4 -367 0 -401 33 -32 32 -31 87 4 241 31 133 46 165 95 194 30 19
53 20 368 20 324 0 337 -1 362 -20z m1272 -12 c-4 -18 -21 -100 -39 -183 l-32
-150 79 -3 c44 -2 82 -1 84 2 3 2 20 76 39 163 18 87 36 168 39 181 5 22 7 22
175 22 l170 0 -6 -26 c-4 -15 -28 -124 -53 -243 l-46 -216 -375 0 c-345 0
-378 1 -403 18 -50 33 -52 57 -18 217 17 80 36 169 42 198 l11 52 169 0 170 0
-6 -32z m-2190 -559 c21 -6 54 -26 72 -44 29 -29 33 -39 32 -87 0 -29 -26
-170 -57 -313 l-57 -260 -189 -3 c-104 -1 -193 1 -197 5 -4 5 19 132 52 283
32 151 59 281 59 288 0 8 -20 12 -67 12 l-68 0 -59 -283 c-33 -155 -61 -288
-64 -294 -7 -20 -392 -18 -392 1 0 8 9 54 20 103 23 101 100 464 100 470 0 1
-31 3 -69 3 l-70 0 -16 -72 c-8 -40 -37 -172 -63 -293 l-47 -220 -189 -3
c-104 -1 -193 1 -197 5 -3 5 13 100 37 213 24 113 58 271 75 353 l32 147 641
0 c434 0 654 -4 681 -11z m1395 4 c0 -5 -13 -68 -29 -140 l-29 -133 24 0 c16
0 38 19 76 65 l53 65 169 0 c160 0 168 -1 154 -17 -8 -10 -42 -51 -76 -91 -34
-40 -62 -79 -62 -85 1 -7 18 -91 39 -187 21 -96 36 -178 34 -182 -4 -7 -333
-12 -333 -5 0 3 -56 263 -65 305 -6 26 -32 29 -39 5 -6 -21 -66 -302 -66 -308
0 -3 -77 -5 -170 -5 l-170 0 5 23 c13 58 145 685 145 690 0 4 77 7 170 7 94 0
170 -3 170 -7z m-477 -243 c15 -12 29 -35 32 -53 7 -39 -47 -295 -71 -336 -10
-16 -36 -40 -58 -53 -40 -22 -48 -23 -331 -26 -328 -4 -367 0 -401 33 -32 33
-31 87 5 243 50 218 37 212 467 212 319 0 332 -1 357 -20z m1277 8 c-1 -7 -18
-89 -39 -183 l-37 -170 79 -3 c44 -2 82 -1 84 2 3 2 20 76 39 163 18 87 36
168 39 181 5 22 7 22 176 22 158 0 170 -1 165 -17 -3 -10 -26 -117 -52 -238
-25 -121 -49 -224 -53 -228 -4 -4 -174 -7 -377 -5 -337 3 -372 5 -397 21 -50
33 -52 57 -18 217 17 80 36 169 42 198 l11 52 169 0 c129 0 169 -3 169 -12z
m-3090 -566 c0 -8 -100 -486 -115 -549 l-5 -23 333 0 c246 0 336 -3 345 -12
22 -22 14 -75 -14 -97 -26 -21 -37 -21 -481 -21 -492 0 -498 1 -541 55 -39 49
-37 78 18 336 28 134 56 261 61 282 l10 37 194 0 c107 0 195 -4 195 -8z m1964
-64 c4 -40 11 -156 16 -258 6 -102 13 -229 16 -282 l7 -98 -195 0 -195 0 -7
31 c-3 17 -6 62 -6 100 l0 69 -163 0 -164 0 -48 -100 -47 -100 -194 0 c-114 0
-194 4 -194 9 0 5 62 137 139 293 123 252 144 289 186 326 90 79 103 81 497
81 l346 1 6 -72z m1519 63 c40 -15 57 -40 57 -81 0 -37 -27 -85 -113 -202
l-20 -27 25 -120 c13 -66 22 -136 20 -156 -5 -45 -47 -90 -98 -104 -42 -12
-1074 -16 -1074 -5 0 10 140 666 146 687 5 16 39 17 519 17 287 0 524 -4 538
-9z"/>
<path d="M2396 3043 c-12 -42 -46 -214 -46 -233 0 -18 6 -20 74 -20 86 0 75
-13 106 135 12 55 24 108 26 118 5 15 -3 17 -75 17 -67 0 -80 -3 -85 -17z"/>
<path d="M2395 2228 c-26 -115 -45 -211 -45 -228 0 -18 7 -20 74 -20 86 0 75
-13 106 135 12 55 24 108 26 118 5 15 -3 17 -75 17 -75 0 -81 -1 -86 -22z"/>
<path d="M2450 1540 c-33 -66 -60 -122 -60 -125 0 -3 56 -5 125 -5 l126 0 -6
93 c-11 165 -7 157 -70 157 l-55 0 -60 -120z"/>
<path d="M3845 1648 c-3 -7 -23 -98 -45 -203 -22 -104 -42 -200 -45 -212 l-5
-23 180 0 c99 0 180 1 180 3 0 2 -11 60 -25 130 l-25 127 53 82 c29 46 56 89
61 96 6 9 -29 12 -159 12 -123 0 -167 -3 -170 -12z"/>
</g>
</svg>
